<svg width="19" height="17" viewBox="0 0 19 17" fill="none" xmlns="http://www.w3.org/2000/svg">
<path d="M15.8 0.899994H3V7.3H15.8V0.899994Z" stroke="black" stroke-width="0.75" stroke-miterlimit="10" stroke-linecap="round" stroke-linejoin="round"/>
<path d="M14.7 2.8V5.5C14.3 5.5 13.9 5.9 13.9 6.3H4.8C4.8 5.9 4.4 5.5 4 5.5V2.8C4.4 2.8 4.8 2.4 4.8 2H13.9C13.9 2.5 14.3 2.8 14.7 2.8Z" stroke="black" stroke-width="0.5" stroke-miterlimit="10" stroke-linecap="round" stroke-linejoin="round"/>
<path d="M9.4 5.8C10.2837 5.8 11 5.08365 11 4.2C11 3.31634 10.2837 2.60001 9.4 2.60001C8.51635 2.60001 7.8 3.31634 7.8 4.2C7.8 5.08365 8.51635 5.8 9.4 5.8Z" stroke="black" stroke-width="0.5" stroke-miterlimit="10" stroke-linecap="round" stroke-linejoin="round"/>
<path d="M6.2 4.7C6.47614 4.7 6.7 4.47614 6.7 4.2C6.7 3.92385 6.47614 3.7 6.2 3.7C5.92385 3.7 5.7 3.92385 5.7 4.2C5.7 4.47614 5.92385 4.7 6.2 4.7Z" stroke="black" stroke-width="0.5" stroke-miterlimit="10" stroke-linecap="round" stroke-linejoin="round"/>
<path d="M12.6 4.7C12.8761 4.7 13.1 4.47614 13.1 4.2C13.1 3.92385 12.8761 3.7 12.6 3.7C12.3239 3.7 12.1 3.92385 12.1 4.2C12.1 4.47614 12.3239 4.7 12.6 4.7Z" stroke="black" stroke-width="0.5" stroke-miterlimit="10" stroke-linecap="round" stroke-linejoin="round"/>
<path d="M9.5 4V3.5C9.6 3.5 9.7 3.60001 9.8 3.60001C9.8 3.60001 9.8 3.60001 9.9 3.60001C10 3.60001 10 3.5 10 3.5V3.39999C9.9 3.29999 9.7 3.2 9.6 3.2V3C9.6 3 9.6 2.89999 9.5 2.89999C9.5 2.89999 9.4 2.9 9.4 3V3.2C9.1 3.2 8.9 3.4 8.9 3.7C8.9 4 9.2 4.1 9.4 4.2V4.8C9.3 4.8 9.1 4.70001 9 4.60001C9 4.60001 9 4.60001 8.9 4.60001C8.8 4.60001 8.8 4.7 8.8 4.7V4.8C8.9 4.9 9.1 5 9.3 5V5.2C9.3 5.2 9.3 5.3 9.4 5.3C9.4 5.3 9.5 5.3 9.5 5.2V5C9.9 5 10 4.7 10 4.5C10 4.2 9.7 4.1 9.5 4ZM9.3 4C9.1 4 9 3.9 9 3.8C9 3.7 9.1 3.60001 9.3 3.60001V4ZM9.5 4.8V4.3C9.7 4.3 9.8 4.40001 9.8 4.60001C9.7 4.70001 9.7 4.8 9.5 4.8Z" fill="black"/>
<path d="M0.900001 16.2L1.7 16.1C2.2 16.1 2.5 15.7 2.5 15.2L2.1 9.60001C2.1 9.10001 1.7 8.8 1.2 8.8L0.400002 8.89999L0.900001 16.2Z" stroke="black" stroke-width="0.75" stroke-miterlimit="10" stroke-linecap="round" stroke-linejoin="round"/>
<path d="M18 12.7L9 16.2C8.7 16.3 8.4 16.3 8.1 16.3L3.5 15.4C3.1 15.3 2.5 15.2 2.4 14.8L2.1 11.4C2.1 11.1 2.1 10.9 2.2 10.7C3.9 7.99999 6.4 9.29999 7 9.69999C7.1 9.79999 7.2 9.8 7.3 9.8L10.2 10.5H10.3C10.4 10.5 10.5 10.6 10.6 10.6C10.6 10.6 10.7 10.6 10.7 10.7C10.8 10.8 10.9 11 10.9 11.1V11.2C10.9 11.3 10.9 11.3 10.9 11.4C10.8 11.8 10.4 12.1 10 12L7.8 11.6H7.7C7.4 11.6 7.2 11.8 7.2 12.1C7.2 12.4 7.4 12.6 7.6 12.7L10.3 13.2C10.4 13.2 10.6 13.2 10.7 13.2L15.7 11.6C16.2 11.4 16.8 11.4 17.3 11.5C17.7 11.6 17.9 11.7 18 11.9C18.5 12 18.4 12.5 18 12.7Z" stroke="black" stroke-width="0.75" stroke-miterlimit="10" stroke-linecap="round" stroke-linejoin="round"/>
</svg>
